<svg aria-hidden="true" style="position: absolute; width: 0; height: 0; overflow: hidden;" version="1.1" xmlns="http://www.w3.org/2000/svg" xmlns:xlink="http://www.w3.org/1999/xlink">
<defs>
<symbol id="icon-btn-2" viewBox="0 0 38 32">
<path fill="#9dc262" style="fill: var(--color1, #9dc262)" d="M28.054 15.356c0 6.068-4.919 10.988-10.988 10.988s-10.988-4.919-10.988-10.988c0-6.068 4.919-10.988 10.988-10.988s10.988 4.919 10.988 10.988z"></path>
<path fill="#fff" style="fill: var(--color2, #fff)" d="M12.247 16.542l-0.4-0.4v1.999l-1.999-1.999-0.3 0.3 1.999 1.999h-1.999l0.4 0.4h2.299v-2.299z"></path>
<path fill="#fff" style="fill: var(--color2, #fff)" d="M15.273 17.408c-0.233 0.058-0.451 0.058-0.651-0.002s-0.373-0.168-0.517-0.325c-0.145-0.159-0.247-0.359-0.307-0.599s-0.063-0.463-0.010-0.67c0.053-0.209 0.154-0.386 0.303-0.533s0.341-0.249 0.574-0.308c0.233-0.058 0.451-0.057 0.651 0.002s0.372 0.169 0.515 0.329c0.144 0.157 0.246 0.356 0.306 0.596s0.063 0.465 0.011 0.673c-0.051 0.206-0.151 0.382-0.301 0.529s-0.341 0.249-0.574 0.308zM15.194 17.089c0.162-0.040 0.293-0.111 0.394-0.213 0.103-0.102 0.172-0.229 0.206-0.38s0.027-0.32-0.019-0.507c-0.046-0.186-0.12-0.338-0.221-0.456s-0.221-0.198-0.36-0.239c-0.137-0.042-0.286-0.043-0.448-0.003s-0.294 0.111-0.397 0.213c-0.103 0.102-0.172 0.229-0.206 0.38-0.032 0.151-0.024 0.32 0.022 0.506s0.119 0.339 0.218 0.457c0.101 0.118 0.221 0.198 0.36 0.239s0.289 0.042 0.451 0.002zM16.695 17.011l-0.588-2.357 0.811-0.202c0.186-0.046 0.347-0.053 0.481-0.020 0.137 0.033 0.248 0.096 0.333 0.189 0.085 0.091 0.143 0.201 0.176 0.332 0.036 0.146 0.030 0.288-0.019 0.427-0.047 0.138-0.145 0.253-0.296 0.346l0.751 0.875-0.414 0.103-0.695-0.835-0.421 0.105 0.237 0.949-0.357 0.089zM16.747 15.703l0.434-0.108c0.162-0.040 0.27-0.109 0.324-0.206 0.057-0.098 0.069-0.209 0.038-0.335s-0.093-0.216-0.186-0.272c-0.093-0.058-0.223-0.066-0.389-0.025l-0.431 0.107 0.209 0.838zM18.608 16.534l-0.588-2.357 0.764-0.191c0.276-0.069 0.515-0.077 0.716-0.025 0.204 0.052 0.37 0.156 0.5 0.312 0.131 0.153 0.227 0.351 0.287 0.593 0.060 0.24 0.068 0.46 0.025 0.659-0.042 0.196-0.14 0.365-0.296 0.506-0.154 0.139-0.369 0.242-0.645 0.311l-0.764 0.191zM18.89 16.142l0.394-0.098c0.213-0.053 0.373-0.13 0.479-0.23 0.108-0.101 0.173-0.223 0.195-0.367 0.024-0.144 0.013-0.307-0.032-0.489s-0.113-0.332-0.202-0.45c-0.087-0.119-0.202-0.198-0.345-0.236-0.141-0.041-0.319-0.035-0.532 0.018l-0.394 0.098 0.437 1.754zM20.841 15.977l-0.588-2.357 1.498-0.374 0.072 0.29-1.141 0.285 0.183 0.734 1.040-0.259 0.071 0.283-1.040 0.259 0.19 0.761 1.141-0.285 0.072 0.29-1.498 0.374zM22.63 15.531l-0.588-2.357 0.811-0.202c0.186-0.046 0.347-0.053 0.481-0.020 0.137 0.033 0.248 0.096 0.333 0.189 0.085 0.091 0.143 0.201 0.176 0.332 0.036 0.146 0.030 0.288-0.019 0.427-0.047 0.138-0.146 0.253-0.296 0.346l0.751 0.875-0.414 0.103-0.695-0.835-0.421 0.105 0.237 0.949-0.357 0.089zM22.683 14.224l0.434-0.108c0.162-0.040 0.27-0.109 0.324-0.206 0.057-0.098 0.069-0.209 0.038-0.335s-0.093-0.216-0.186-0.272c-0.093-0.058-0.223-0.066-0.389-0.025l-0.431 0.107 0.209 0.838z"></path>
</symbol>
</defs>
</svg>
